<?xml version="1.0" standalone="no"?>
<!DOCTYPE svg PUBLIC "-//W3C//DTD SVG 20010904//EN"
 "http://www.w3.org/TR/2001/REC-SVG-20010904/DTD/svg10.dtd">
<svg version="1.0" xmlns="http://www.w3.org/2000/svg"
 width="1200.000000pt" height="1200.000000pt" viewBox="0 0 1200.000000 1200.000000"
 preserveAspectRatio="xMidYMid meet">

<g transform="translate(0.000000,1200.000000) scale(0.100000,-0.100000)"
fill="#000000" stroke="none">
<path d="M206 10775 c-82 -33 -124 -71 -165 -146 l-36 -64 0 -4565 0 -4565 27
-52 c37 -70 89 -120 157 -152 l56 -26 5755 0 5755 0 56 26 c68 32 120 82 157
152 l27 52 0 4565 0 4565 -24 45 c-42 80 -79 118 -149 152 l-67 33 -5745 2
-5745 3 -59 -25z m11194 -1175 l0 -600 -5400 0 -5400 0 0 600 0 600 5400 0
5400 0 0 -600z m0 -4500 l0 -3300 -5400 0 -5400 0 0 3300 0 3300 5400 0 5400
0 0 -3300z"/>
<path d="M1120 9827 c-19 -6 -58 -34 -85 -62 -71 -70 -91 -145 -63 -239 16
-55 99 -138 154 -154 94 -28 169 -8 239 63 98 97 101 222 8 325 -65 72 -158
97 -253 67z"/>
<path d="M2020 9827 c-49 -16 -133 -102 -148 -153 -28 -94 -8 -169 63 -239 51
-52 102 -75 165 -75 63 0 114 23 165 75 102 101 102 229 0 330 -70 71 -152 91
-245 62z"/>
<path d="M2920 9827 c-49 -16 -133 -102 -148 -153 -28 -94 -8 -169 63 -239 51
-52 102 -75 165 -75 124 0 240 116 240 240 0 63 -23 114 -75 165 -70 71 -152
91 -245 62z"/>
<path d="M6924 7177 c-28 -14 -60 -37 -73 -52 -12 -16 -515 -892 -1118 -1948
l-1098 -1920 -3 -66 c-7 -117 31 -173 171 -253 78 -45 101 -53 155 -56 52 -4
71 0 117 22 30 15 64 39 75 53 11 15 514 890 1117 1946 l1098 1920 3 66 c7
117 -31 173 -171 253 -81 46 -100 53 -157 56 -52 2 -75 -2 -116 -21z"/>
<path d="M3585 6930 c-58 -28 -1735 -1710 -1766 -1770 -33 -63 -33 -176 0
-240 31 -61 1708 -1742 1767 -1770 54 -27 151 -27 202 -1 51 27 188 168 207
213 19 48 19 138 0 186 -11 26 -235 256 -743 765 l-727 727 717 718 c508 508
723 730 738 762 30 59 31 148 3 211 -27 60 -138 173 -194 199 -59 26 -151 27
-204 0z"/>
<path d="M8223 6929 c-65 -32 -177 -156 -198 -219 -21 -64 -16 -140 13 -196
12 -23 314 -332 731 -749 391 -390 711 -717 711 -725 0 -8 -322 -337 -716
-730 -418 -418 -724 -732 -737 -755 -32 -60 -30 -156 5 -215 34 -58 156 -176
202 -195 52 -22 148 -19 197 6 26 13 353 332 890 868 954 954 905 897 897
1034 -2 41 -12 89 -22 112 -13 27 -285 307 -870 892 -660 661 -861 857 -896
872 -61 28 -151 28 -207 0z"/>
</g>
</svg>
